<svg width="188" height="51" viewBox="0 0 188 51" fill="none" xmlns="http://www.w3.org/2000/svg">
<g clip-path="url(#clip0_10353_2739)">
<path d="M25.3716 24.3344V18.0259H0.36833V24.7031H15.5175L0 43.8119V50.6269H25.6941V43.8119H9.48577L25.3716 24.3344Z" fill="white"/>
<path d="M43.0012 37.1354H56.5386V30.8269H43.0012V24.7031H57.3215V18.0259H35.4038V50.627H58.1504V43.9044H43.0012V37.1354Z" fill="white"/>
<path d="M97.6211 40.0905V18.0259H89.9783L90.1632 39.3005H90.0241L76.9484 18.0259H67.9683V50.6266H75.612L75.4268 29.3082H75.5654L86.4777 47.0332L96.4123 39.3005L97.6211 40.0905Z" fill="white"/>
<path d="M96.3989 42.6349L97.6077 43.4244L96.3989 42.6344V42.6349Z" fill="white"/>
<path d="M116.867 35.7567V18.0259H108.949V34.9902L111.97 31.5506L116.867 35.7567Z" fill="white"/>
<path d="M125.059 24.7489H134.269V50.627H142.142V24.7489H151.351V18.0259H125.059L125.059 24.7489Z" fill="white"/>
<path d="M180.126 18.0259V30.3666H167.417V18.0259H159.544V50.627H167.417V36.9973H180.126V50.627H188V18.0259H180.126Z" fill="white"/>
<path d="M111.97 34.8828L108.949 38.3225L111.97 34.8832V34.8828Z" fill="white"/>
<path d="M114.178 36.7879L111.959 34.8828L108.939 38.3221L101.961 46.269L97.6103 43.4223L96.4007 42.6328L94.5059 44.1077L87.8521 49.2862L88.6763 50.6255H130.294L116.856 39.089L114.178 36.7879Z" fill="#C5930E"/>
<path d="M111.968 34.8832L114.187 36.7883L111.968 34.8828V34.8832Z" fill="#C5930E"/>
<path d="M87.8521 49.2891L94.5059 44.1107L91.5934 46.3769L87.8521 49.2891Z" fill="#C5930E"/>
<path d="M96.3995 42.6344L91.5923 46.376L94.5048 44.1098L96.3995 42.6349V42.6344Z" fill="#C5930E"/>
<path d="M112.965 13.3963C116.664 13.3624 119.635 10.3361 119.602 6.63686C119.567 2.93765 116.541 -0.0336478 112.842 0.000295577C109.143 0.0342296 106.171 3.06055 106.205 6.75977C106.24 10.459 109.265 13.4303 112.965 13.3963Z" fill="#C5930E"/>
</g>
<defs>
<clipPath id="clip0_10353_2739">
<rect width="188" height="50.627" fill="white"/>
</clipPath>
</defs>
</svg>
